<svg xmlns="http://www.w3.org/2000/svg" viewBox="0 0 340.33 218.65"><defs><style>.cls-1{fill:#fff;}</style></defs><g id="Layer_2" data-name="Layer 2"><g id="Content"><g id="Final"><g id="With_Title" data-name="With Title"><g id="Black_BG" data-name="Black BG"><g id="Components"><path class="cls-1" d="M210.66,43.33v-2.1A1.22,1.22,0,0,1,212,39.85h5.18a1.22,1.22,0,0,1,1.38,1.38v1.45q0,3.41,1.5,4.9t5,1.5h5.59q3.48,0,5-1.58c1-1,1.54-2.76,1.54-5.14V40.5a4.83,4.83,0,0,0-2-4.09,10.53,10.53,0,0,0-4.89-1.94q-2.93-.45-6.4-1.26a56.8,56.8,0,0,1-6.39-1.86,9.94,9.94,0,0,1-4.9-4,12.89,12.89,0,0,1-2-7.45v-3.4c0-3.93,1.12-7,3.36-9.27s5.33-3.36,9.27-3.36h8.59c4,0,7.11,1.13,9.35,3.36s3.36,5.34,3.36,9.27v1.79a1.22,1.22,0,0,1-1.38,1.37H238a1.22,1.22,0,0,1-1.38-1.37V17.26q0-3.48-1.5-5t-5-1.49h-5.11q-3.48,0-5,1.57c-1,1.06-1.5,2.85-1.5,5.39v2.51c0,2.43,1.75,4.07,5.26,4.94q2.35.57,5.14,1a42.94,42.94,0,0,1,5.63,1.21,23.59,23.59,0,0,1,5.18,2.15,9.89,9.89,0,0,1,3.8,4,13.66,13.66,0,0,1,1.46,6.59v3.16q0,5.91-3.36,9.27T232.44,56h-9.07q-5.91,0-9.31-3.36T210.66,43.33Z"/><path class="cls-1" d="M264.42,56h-5.1a1.22,1.22,0,0,1-1.38-1.37V5.28a1.22,1.22,0,0,1,1.38-1.38h5.1a1.22,1.22,0,0,1,1.38,1.38V25.52c0,.54.32.81,1,.81h17.08a.72.72,0,0,0,.81-.81V5.28A1.22,1.22,0,0,1,286,3.9h5.18a1.21,1.21,0,0,1,1.37,1.38V54.59A1.21,1.21,0,0,1,291.22,56H286a1.22,1.22,0,0,1-1.38-1.37V34.1a.72.72,0,0,0-.81-.81H266.77c-.65,0-1,.27-1,.81V54.59A1.22,1.22,0,0,1,264.42,56Z"/><path class="cls-1" d="M327.49,56H318.1q-6,0-9.27-3.32t-3.28-9.23v-27q0-6,3.28-9.27T318.1,3.9h9.39q6,0,9.31,3.28t3.32,9.27v27q0,5.91-3.32,9.23T327.49,56Zm-8.26-6.88h7q5.91,0,5.91-6V16.78c0-4-2-6-5.91-6h-7c-3.89,0-5.83,2-5.83,6V43.09Q313.4,49.08,319.23,49.08Z"/><path class="cls-1" d="M218.11,119.32H213a1.21,1.21,0,0,1-1.37-1.37V68.64A1.21,1.21,0,0,1,213,67.26h19c3.94,0,7,1.13,9.27,3.36s3.36,5.34,3.36,9.27v6.8q0,9.32-7.69,11.74v.33l9,18.94q.88,1.62-1,1.62h-5A2.41,2.41,0,0,1,237.3,118l-8.66-18.63h-8.18c-.65,0-1,.28-1,.81V118A1.22,1.22,0,0,1,218.11,119.32Zm2.27-26.47h10.28q6,0,6-5.91v-6.8c0-4-2-6-6-6H220.38c-.6,0-.89.27-.89.81V92C219.49,92.58,219.78,92.85,220.38,92.85Z"/><path class="cls-1" d="M277.29,119.32h-5.18a1.22,1.22,0,0,1-1.38-1.37v-17.9L255.6,68.72a.91.91,0,0,1,0-1,1.07,1.07,0,0,1,.89-.41H263q1.05,0,1.62,1.38l10,22.26H275l9.79-22.26q.49-1.38,1.62-1.38h6.48a1.06,1.06,0,0,1,.93.41,1,1,0,0,1,0,1l-15.14,31.33V118A1.22,1.22,0,0,1,277.29,119.32Z"/><path class="cls-1" d="M332.91,67.26H338c1,0,1.46.44,1.46,1.3v38.21q0,5.91-3.36,9.23t-9.27,3.32h-9q-5.91,0-9.23-3.32t-3.32-9.23V68.64a1.22,1.22,0,0,1,1.38-1.38h5.1a1.22,1.22,0,0,1,1.38,1.38v37.81q0,6,5.83,6h6.64c3.93,0,5.91-2,5.91-6V68.64A1.21,1.21,0,0,1,332.91,67.26Z"/><path class="cls-1" d="M218.11,182.68H213a1.21,1.21,0,0,1-1.37-1.37V132a1.21,1.21,0,0,1,1.37-1.37h5.1a1.21,1.21,0,0,1,1.38,1.37v25.67h.24a17.7,17.7,0,0,1,2.11-4L237.3,132a2.88,2.88,0,0,1,2.59-1.37h6c1.14,0,1.32.51.57,1.53l-15.79,21.46,17.81,27.44c.65,1.08.33,1.62-1,1.62H243a3.39,3.39,0,0,1-3.08-1.37l-14-21.94-6.39,7.53v14.41A1.22,1.22,0,0,1,218.11,182.68Z"/><path class="cls-1" d="M288,182.68H262.07a1.21,1.21,0,0,1-1.37-1.37V132a1.21,1.21,0,0,1,1.37-1.37H288c.86,0,1.29.45,1.29,1.37v4.13q0,1.38-1.29,1.38H269.52c-.65,0-1,.27-1,.81V152c0,.54.32.81,1,.81h15.63c1,0,1.45.46,1.45,1.37v4.13c0,.92-.48,1.38-1.45,1.38H269.52c-.65,0-1,.27-1,.81v14.41c0,.59.32.89,1,.89H288q1.29,0,1.29,1.38v4.13C289.27,182.22,288.84,182.68,288,182.68Z"/><path class="cls-1" d="M310.65,182.68h-5a1.22,1.22,0,0,1-1.38-1.37V132a1.21,1.21,0,0,1,1.38-1.37h4.53a1.83,1.83,0,0,1,1.78.89l19.6,35.21h.32V132a1.21,1.21,0,0,1,1.38-1.37h5a1.21,1.21,0,0,1,1.37,1.37v49.31a1.21,1.21,0,0,1-1.37,1.37h-4.38a2.41,2.41,0,0,1-2.1-1.29l-19.43-34.82H312v34.74A1.21,1.21,0,0,1,310.65,182.68Z"/><path class="cls-1" d="M211.42,210.36v-.74a.42.42,0,0,1,.47-.48h1.81a.42.42,0,0,1,.48.48v.51a2.31,2.31,0,0,0,.52,1.7,2.36,2.36,0,0,0,1.73.52h1.94a2.4,2.4,0,0,0,1.75-.54,2.55,2.55,0,0,0,.53-1.79v-.65A1.67,1.67,0,0,0,220,208a3.76,3.76,0,0,0-1.7-.68c-.68-.1-1.42-.25-2.23-.43a21.09,21.09,0,0,1-2.22-.65,3.48,3.48,0,0,1-1.7-1.38,4.52,4.52,0,0,1-.69-2.59V201a4,4,0,0,1,4.39-4.39h3a4,4,0,0,1,4.42,4.39v.62a.42.42,0,0,1-.47.48h-1.81a.42.42,0,0,1-.48-.48v-.36A1.92,1.92,0,0,0,218.2,199h-1.77a2.31,2.31,0,0,0-1.73.55,2.69,2.69,0,0,0-.52,1.88v.87c0,.84.6,1.42,1.83,1.72.54.13,1.14.24,1.78.34a14,14,0,0,1,2,.42,8.09,8.09,0,0,1,1.8.74,3.43,3.43,0,0,1,1.33,1.41,4.92,4.92,0,0,1,.5,2.3v1.1a4,4,0,0,1-4.39,4.39h-3.15a4.41,4.41,0,0,1-3.24-1.17A4.31,4.31,0,0,1,211.42,210.36Z"/><path class="cls-1" d="M235.32,214.75h-3.26a4,4,0,0,1-4.37-4.37V201a4,4,0,0,1,4.37-4.37h3.26a4.41,4.41,0,0,1,3.24,1.14,4.34,4.34,0,0,1,1.16,3.23v9.37a4,4,0,0,1-4.4,4.37Zm-2.87-2.4h2.45a1.83,1.83,0,0,0,2.06-2.08v-9.15A1.84,1.84,0,0,0,234.9,199h-2.45a1.82,1.82,0,0,0-2,2.09v9.15A1.82,1.82,0,0,0,232.45,212.35Z"/><path class="cls-1" d="M253.91,214.75h-9.13a.42.42,0,0,1-.47-.48V197.12a.42.42,0,0,1,.47-.48h1.78a.42.42,0,0,1,.48.48V212c0,.18.11.28.34.28h6.53q.48,0,.48.51v1.46A.42.42,0,0,1,253.91,214.75Z"/><path class="cls-1" d="M267.23,196.64H269q.51,0,.51.45v13.29a4.31,4.31,0,0,1-1.17,3.21,4.38,4.38,0,0,1-3.22,1.16H262a4,4,0,0,1-4.36-4.37V197.12a.42.42,0,0,1,.47-.48h1.78a.42.42,0,0,1,.48.48v13.15a1.81,1.81,0,0,0,2,2.08h2.31a1.83,1.83,0,0,0,2.06-2.08V197.12A.42.42,0,0,1,267.23,196.64Z"/><path class="cls-1" d="M279.2,214.75h-1.78q-.51,0-.51-.48v-15c0-.19-.09-.29-.28-.29h-3.54c-.34,0-.51-.15-.51-.47v-1.44q0-.48.51-.48h10.44q.51,0,.51.48v1.44c0,.32-.17.47-.51.47H280c-.2,0-.31.1-.31.29v15A.42.42,0,0,1,279.2,214.75Z"/><path class="cls-1" d="M290.12,197.12v17.15a.42.42,0,0,1-.48.48h-1.77a.42.42,0,0,1-.48-.48V197.12a.42.42,0,0,1,.48-.48h1.77A.42.42,0,0,1,290.12,197.12Z"/><path class="cls-1" d="M302.51,214.75h-3.27a4,4,0,0,1-4.36-4.37V201a4,4,0,0,1,4.36-4.37h3.27a4.41,4.41,0,0,1,3.24,1.14A4.34,4.34,0,0,1,306.9,201v9.37a4.34,4.34,0,0,1-1.15,3.21A4.38,4.38,0,0,1,302.51,214.75Zm-2.87-2.4h2.45a1.83,1.83,0,0,0,2.06-2.08v-9.15a1.84,1.84,0,0,0-2.06-2.09h-2.45a1.82,1.82,0,0,0-2,2.09v9.15A1.82,1.82,0,0,0,299.64,212.35Z"/><path class="cls-1" d="M313.72,214.75H312a.42.42,0,0,1-.48-.48V197.12a.42.42,0,0,1,.48-.48h1.58a.63.63,0,0,1,.62.31L321,209.2h.12V197.12a.42.42,0,0,1,.48-.48h1.74a.42.42,0,0,1,.48.48v17.15a.42.42,0,0,1-.48.48H321.8a.84.84,0,0,1-.73-.45l-6.76-12.11h-.11v12.08A.42.42,0,0,1,313.72,214.75Z"/><path class="cls-1" d="M328.36,210.36v-.74a.42.42,0,0,1,.48-.48h1.8a.42.42,0,0,1,.48.48v.51a2.31,2.31,0,0,0,.52,1.7,2.39,2.39,0,0,0,1.73.52h1.95a2.37,2.37,0,0,0,1.74-.54,2.5,2.5,0,0,0,.54-1.79v-.65a1.67,1.67,0,0,0-.69-1.42,3.76,3.76,0,0,0-1.71-.68c-.67-.1-1.41-.25-2.22-.43a20.41,20.41,0,0,1-2.22-.65,3.55,3.55,0,0,1-1.71-1.38,4.52,4.52,0,0,1-.69-2.59V201a4,4,0,0,1,4.39-4.39h3a4.05,4.05,0,0,1,4.42,4.39v.62a.42.42,0,0,1-.48.48h-1.8a.42.42,0,0,1-.48-.48v-.36a1.92,1.92,0,0,0-2.25-2.26h-1.78a2.34,2.34,0,0,0-1.73.55,2.69,2.69,0,0,0-.52,1.88v.87c0,.84.61,1.42,1.83,1.72.55.13,1.14.24,1.79.34a14,14,0,0,1,2,.42,8.5,8.5,0,0,1,1.8.74,3.47,3.47,0,0,1,1.32,1.41,4.8,4.8,0,0,1,.51,2.3v1.1a4,4,0,0,1-4.39,4.39h-3.16a4.41,4.41,0,0,1-3.24-1.17A4.35,4.35,0,0,1,328.36,210.36Z"/><rect class="cls-1" width="184.4" height="218.65"/><path class="cls-1" d="M31.21,138.21A62.51,62.51,0,0,0,140.78,78c-8.32-15.13-21.31-22-10-52.27"/><path d="M133.15,99a2.47,2.47,0,0,1-2.17,3.85l-1.38.44a15.41,15.41,0,0,1,.24-3.19C130.18,99,131,98.14,133.15,99Z"/><path class="cls-1" d="M143.26,96.65c-.52,1.68-1.34.62-2.24.54-.05-.68-.16-1.36-.24-2C141.73,94.26,142.77,95.83,143.26,96.65Z"/><path d="M165.05,93.57l.39-1a5.92,5.92,0,0,0-.25,3.08c-1.14.23-2.58-1.11-2.36-2.83C163.75,93,164.09,94.65,165.05,93.57Z"/><path d="M139,127.5a12.48,12.48,0,0,0,6,1.13,17.34,17.34,0,0,0,6.75-1.63c1.76.9,3.49,1.83,5.23,2.79a4.56,4.56,0,0,0-2,1.71,9.73,9.73,0,0,0-1.22,2.53c-.3.95-.61,1.94-.9,2.93a17.76,17.76,0,0,1-1,2.83c.43,1.88,3.3-2.44,2.77,1.58-1,0-2.13-.89-3-.43-.05,1.86,1.06,2.92,1.66,4.32s.6,3.15-2.05,6.11c-1.27.2-2.52.37-3.76.52-1.9,2.63-3.66,5.42-5.66,8.11-1,1.38-2,2.67-3,4s-2.15,2.62-3.34,3.83c-4.64,4.91-10.26,9-16.62,10.41-.39,1.81-2.24,3.2-4.43,4.41s-4.69,2.27-6.43,3.7l-.56-1.64a2.8,2.8,0,0,1-1.65,1.64,6.13,6.13,0,0,1-2.41.21c-1.72-.09-3.55-.65-4.93-.2-.93-.4-1.86-.87-2.76-1.3-.65-1.38,1.08-1.89,2.56-2.68s2.73-1.71,1.28-3.62c-2.67-.73-4.54.51-6.49,1.65a10.5,10.5,0,0,1-3,1.28,4.17,4.17,0,0,1-3.17-.69c-4.2-.77-3.75,1.23-6.5,2-.84,1.7.75,1.76.33,3.77-5.17.2-7.58-2.33-9.52-4.8a29.67,29.67,0,0,0-3-3.55,8.28,8.28,0,0,0-1.93-1.37,9.63,9.63,0,0,0-2.58-.92,4,4,0,0,1-1.51,1,17.59,17.59,0,0,0-2.26,1.21c-1.36.95-2.07,2.26.74,4.39,1.2-.25,2.38-.51,3.54-.79.49.84,1,1.64,1.54,2.46-2.42-.51-6.64-2.15-6.82-.11-.46-3.63-4.85-3.64-8.08-4-1.61-.13-2.89-.31-3.08-.77s.74-1.16,3.37-2.62c1.48,1.62,2.57,2.51,3.73,2.75a6.19,6.19,0,0,0,4-.83,44.7,44.7,0,0,1-10.67-7.22c-3.07-2.67-5.68-5.4-8.42-7.72-1.17.31-2.36.61-3.56.86a5,5,0,0,0,.66-4.23,15.8,15.8,0,0,0-1.9-4.7c-1.41-.63-2.47-2.18-3.26-.91-.87.3.93,2.87,2.23,5.08.62,1.14,1.11,2.19.92,2.93s-1,1.21-3.13,1a36.62,36.62,0,0,1-6-11.32,22.51,22.51,0,0,1-.92-10.89,46.73,46.73,0,0,0,3.12,3.83A7.88,7.88,0,0,0,30,147a10.93,10.93,0,0,0,3.23.82c2.63,1.84,5,3.82,7.4,5.72s4.78,3.83,7.33,5.5c1.24.87,2.57,1.61,3.88,2.35a34,34,0,0,0,4.1,1.83,25.44,25.44,0,0,0,4.27,1.16,20.22,20.22,0,0,0,4.4.26,5,5,0,0,0,.79,2.85c.42.88.72,1.7,0,2.54.3.83,1.29,1.11,2.2,1.55a2.56,2.56,0,0,1,1.82,2.46c4.92-.24,9.83.15,14.73.36A74.26,74.26,0,0,0,98,174.09c-1.59-2.33-.48-3.34,1.12-4.14.8-.43,1.76-.77,2.6-1.2a4.71,4.71,0,0,0,1.94-1.6,4.8,4.8,0,0,0,4.14.15,37.11,37.11,0,0,0,3.89-1.93c-.09-.92,1.21-1.89.24-3-1.43,1.34-2.5.64-4.43.83-.34-1.92.57-2.18,1.9-2.23.66,0,1.45.06,2.23.07a6,6,0,0,0,2.19-.39c-.11.84-.23,1.68-.37,2.53a13,13,0,0,1,3.81-.9c.7-.08,1.44-.14,2.18-.21s1.46-.19,2.19-.31a10.78,10.78,0,0,0,3.93-1.37,4.8,4.8,0,0,0,2.19-3.13c-1.79-.12-3.49-.24-5.2-.5,1.61-2.25,4.38-3.47,6.71-5.16a10.87,10.87,0,0,0,2.92-2.8,5.06,5.06,0,0,0,.75-3.75,8.38,8.38,0,0,0-2.16,2c-.68.76-1.34,1.57-2,2.24-1.38,1.25-2.74,1.87-4.38,0a2.35,2.35,0,0,1,.16-3.06,6,6,0,0,1,2.83-2,8.14,8.14,0,0,0,2.7-1.42,8.44,8.44,0,0,0,1.7-2.1,13.56,13.56,0,0,0,1-2.46c.23-.86.39-1.72.57-2.56a15.05,15.05,0,0,1,1.34-4.66A8.06,8.06,0,0,1,139,127.5Z"/><path d="M127.06,132.71a4.24,4.24,0,0,0-.53,3,9,9,0,0,0,1.17,2.44,5.45,5.45,0,0,1,1,2.36,3.53,3.53,0,0,1-1.36,2.82,3.65,3.65,0,0,0-3.24-1.48,5.5,5.5,0,0,0-3.14,1,3.26,3.26,0,0,1-1.46,2.5c-.38.29-.77.55-1.15.79a5.92,5.92,0,0,0-1,.71c-1.16.25-3-2.39-1.55-3.64,3.52.46,5.11-2.18,6.2-4.74S123.76,133.41,127.06,132.71Z"/><path class="cls-1" d="M142.42,134.7c-.59,1.71-2.1,1.56-3.49,1.41s-2.59-.25-2.73,1.55c-1-1.4-.87-1.79-.22-2.18a4.43,4.43,0,0,0,2.32-2.18c.29.78.59,1.59.84,2.4C140.23,135.4,141.31,135.06,142.42,134.7Z"/><path d="M119.46,150.69a4.22,4.22,0,0,1-1.53,1,6.32,6.32,0,0,1-2.22.58,4.25,4.25,0,0,1-4.13-1.81c-.38-.11-.89-1.84-1.43-.81a6.83,6.83,0,0,0,1.79-.18,17.91,17.91,0,0,1,2.32-.37A6.2,6.2,0,0,1,119.46,150.69Z"/><path class="cls-1" d="M136,154.13c-.46,1.46-1.47,2.5-2.95,4.05C133.63,156.71,133.78,154.56,136,154.13Z"/><path d="M121.14,157.49c.92.92.63,1.34,0,1.57s-1.49.21-1.75.39l-1.69-.22C118.43,158,119.53,157,121.14,157.49Z"/><path d="M101.91,158.59c-1.49-.09-1-1.08-.64-2s.67-1.73-.86-1.45l1.57-.91c.64,1.19,1.3,2.38,2,3.56Z"/><path d="M97,156.22a2.25,2.25,0,0,1-1,1.1,2.33,2.33,0,0,1-1.7-.15l.45-1.57C95.11,154.93,96,156.51,97,156.22Z"/><path d="M102.92,164.05c-1.18,1.29-1.53-.72-2.62-1.27.11-.64,1.06-.5,1.86-.11S103.59,163.68,102.92,164.05Z"/><path d="M89.3,190.72c.92-1.62,2.34-2.07,4-2.25a18,18,0,0,0,5.37-1c-1.76.77-3,1.59-4.36,2.27A9.66,9.66,0,0,1,89.3,190.72Z"/><path d="M124,83.74a1.52,1.52,0,0,0-.58-1.65,4.13,4.13,0,0,0-1.83-.71L121,82.54C122.1,83,123,83.33,124,83.74Z"/><path d="M128.14,97.15c3.94,0,1.77-1.18,3.79-4-.07-1.45-1.15-2.61-2.26-3.65-.59-.51-1.19-1-1.69-1.51a5.27,5.27,0,0,1-1.25-1.65c-.85-.16-1.75-.26-2.61-.35a37.76,37.76,0,0,0,1.21,5.74A13.35,13.35,0,0,0,128.14,97.15Z"/><path class="cls-1" d="M147,95.05a4.65,4.65,0,0,0-1-4.19c-.83-1.27-2-2.29-2.3-3.19a88.22,88.22,0,0,1,1.69,9.42C146.33,97.21,146.66,95.83,147,95.05Z"/><path d="M107.19,41.2c0,.83-.17,1.67-.27,2.59s-.16,2-.25,3-.2,2-.17,3.16.07,2.25.18,3.39c.06.57.11,1.14.21,1.71s.25,1.14.41,1.7A22.85,22.85,0,0,0,108.45,60a18.3,18.3,0,0,0,1.84,2.88,13.56,13.56,0,0,0,1.12,1.27,14.5,14.5,0,0,0,1.32,1,13.26,13.26,0,0,1-.07-4.05,18,18,0,0,0,0-2.15c0-.86,0-1.92-.14-3.28a5.18,5.18,0,0,1,2.63,2.47,6.08,6.08,0,0,1,.53,3c0,1.15-.13,2.29-.09,3.47A7,7,0,0,0,116.4,68c-.7-3.69,3.36-.31,5.06,1.72a19.41,19.41,0,0,0,.74,2c.28.64.6,1.27,1,1.92s.75,1.33,1.12,1.92.81,1.25,1.23,1.85c1.63,2.37,3.22,4.52,4.45,6.47a3.68,3.68,0,0,1,1.62,1.65c.48.78.82,1.73,1.26,2.53.79,1.63,1.79,2.83,3.89,1.53,1.41,2.81-2.07,4.33-2.56,6.6a4.3,4.3,0,0,1,1.7,2,4.16,4.16,0,0,1,.08,2.27,9.12,9.12,0,0,1-1,2.32,26.18,26.18,0,0,1-1.61,2.23,17.66,17.66,0,0,0-2.81,4.12,3.76,3.76,0,0,0-.14,2.08,6.21,6.21,0,0,0,1.39,2.38c-2.83-.7-2.78,2.26-3.28,3.33-.17.6-.38,1.41-.59,2.27a12,12,0,0,0-.32,2.66c0,1.71.78,3.33,3.56,3.66a2,2,0,0,0,1.79-1.22,6.65,6.65,0,0,0,.14-2.31,7.27,7.27,0,0,1,.08-2.47,3,3,0,0,1,1.69-2c1.65-1,2.56-1.21,3.07-.84s.64,1.3.61,2.39c0,.55,0,1.15,0,1.73a8.83,8.83,0,0,0,.08,1.72,2.67,2.67,0,0,0,1.77,2.39c-.6-1,3.68-.33,2.86-3.36.38,3,1.8,2.88,3.46,2.26s3.49-1.69,4.57.28c2.28-3.31,3.23-5,4.59-6.08s3-1.73,6.25-3.6c-.32-2.59-1.61-3.55-3.1-4s-3.15-.54-4.31-1.22a6.2,6.2,0,0,1-.6-3.47,17,17,0,0,1,.87-3.29,17.2,17.2,0,0,0,.95-3.29,6.89,6.89,0,0,0,.08-1.63,4.92,4.92,0,0,0-.47-1.56c2,.48,3.32.25,4.09-.54a4.73,4.73,0,0,0,.93-3.7c-.13-3.18-1.9-7.14-2.9-9.71-1.13-3.42-2.93-3.32-4.7-3.22a5,5,0,0,1-2.55-.3,3.1,3.1,0,0,1-1.13-.93,6.79,6.79,0,0,1-1.06-1.85c.81-2.41,2.69-1.42,4.6-.42s3.7,2,4.41-1.15c-1-.86-2-1.67-3-2.48a44.26,44.26,0,0,0-5.67-.38,25.23,25.23,0,0,1-5.16-.54c-.79-1.17-2-2.77-1-3.46,2.51,1.48,4.46-.74,4.2-4a7.7,7.7,0,0,0-3.41-.26c-1.92,4.45-2.79,3.4-3.92,1.19a31.43,31.43,0,0,0-1.84-3.47,4.29,4.29,0,0,0-3.08-2,7.84,7.84,0,0,1-2.62-2.07,2.7,2.7,0,0,1-.52-1.92c.13-1.16,1.35-2.09,2.58-2.91a21.65,21.65,0,0,0,3.46-2.45,2.3,2.3,0,0,0,.71-1.5,3.83,3.83,0,0,0-.49-2.24c-1.77.51-2.89.53-3.62.06s-1-1.4-1.06-2.52a17.62,17.62,0,0,1,0-1.8c.06-.63.13-1.27.16-1.91a10.9,10.9,0,0,0-.06-1.82,5,5,0,0,0-.38-1.59,4.52,4.52,0,0,1,2.19-2.63,30.43,30.43,0,0,1,3.61-1.44c-.5-.94-.21-3-1.4-3.83a28.24,28.24,0,0,0-15,1.24A36.9,36.9,0,0,0,114,33.3a44.24,44.24,0,0,0-3.76,3.17,21.73,21.73,0,0,0-1.84,1.87c-.58.69-1.15,1.42-1.72,2.17C106.84,40.88,107,41.19,107.19,41.2Z"/></g></g></g></g></g></g></svg>